<svg id="svg" xmlns="http://www.w3.org/2000/svg" xmlns:xlink="http://www.w3.org/1999/xlink" width="400" height="400" viewBox="0, 0, 400,400" version="1.1"><g id="svgg"><path id="path0" d="M38.289 87.397 C 30.870 94.765,24.800 101.005,24.800 101.264 C 24.800 101.522,24.697 101.630,24.571 101.504 C 24.346 101.279,14.097 111.552,12.427 113.675 C 11.962 114.266,9.066 117.283,5.991 120.381 C -1.398 127.824,-1.399 126.976,6.000 134.428 C 9.080 137.531,11.600 140.146,11.600 140.240 C 11.600 140.334,18.125 146.955,26.100 154.954 C 34.075 162.952,44.034 172.985,48.231 177.248 C 58.732 187.915,97.913 226.800,98.160 226.800 C 98.271 226.800,111.490 239.895,127.536 255.900 C 143.582 271.905,160.594 288.780,165.340 293.400 C 170.086 298.020,177.645 305.400,182.139 309.800 C 186.632 314.200,191.917 319.330,193.883 321.200 C 200.721 327.705,200.130 327.732,207.112 320.600 C 210.019 317.630,212.506 315.200,212.637 315.200 C 212.933 315.200,229.401 298.868,289.874 238.600 C 315.923 212.640,350.359 178.350,366.400 162.400 C 382.441 146.450,395.573 133.253,395.583 133.074 C 395.592 132.895,396.500 131.871,397.600 130.800 C 401.097 127.393,401.225 127.639,390.200 116.554 C 385.030 111.355,380.799 106.989,380.798 106.851 C 380.795 106.377,348.950 74.800,348.475 74.800 C 348.214 74.800,348.000 74.620,348.000 74.400 C 348.000 73.172,345.164 74.064,343.234 75.900 C 342.135 76.945,339.777 79.150,337.994 80.800 C 331.648 86.671,330.828 87.494,331.079 87.746 C 331.219 87.886,331.099 88.000,330.814 88.000 C 330.260 88.000,328.800 89.494,328.800 90.061 C 328.800 90.248,328.500 90.400,328.133 90.400 C 327.767 90.400,327.579 90.512,327.715 90.649 C 327.976 90.909,324.953 94.000,324.438 94.000 C 324.275 94.000,319.475 98.587,313.771 104.193 C 308.067 109.799,301.638 116.099,299.485 118.193 C 297.332 120.287,295.639 122.000,295.723 122.000 C 295.806 122.000,294.598 123.316,293.037 124.924 C 291.477 126.533,290.065 127.782,289.900 127.701 C 289.735 127.619,289.600 127.844,289.600 128.200 C 289.600 128.556,289.465 128.775,289.300 128.686 C 289.135 128.597,286.254 131.286,282.897 134.662 C 279.540 138.038,276.875 140.800,276.974 140.800 C 277.072 140.800,276.445 141.475,275.580 142.300 C 274.715 143.125,271.179 146.545,267.721 149.900 C 264.264 153.255,261.369 156.000,261.289 156.000 C 260.950 156.000,259.981 157.197,260.086 157.486 C 260.149 157.659,259.825 157.965,259.366 158.166 C 258.908 158.368,258.368 158.908,258.166 159.366 C 257.965 159.825,257.659 160.149,257.486 160.086 C 257.198 159.981,256.000 160.950,256.000 161.288 C 256.000 161.441,245.096 172.400,244.943 172.400 C 244.594 172.400,212.000 205.203,212.000 205.554 C 212.000 205.799,211.807 206.000,211.571 206.000 C 211.052 206.000,209.965 207.032,210.218 207.285 C 210.318 207.384,209.949 207.706,209.399 208.000 C 208.850 208.294,208.400 208.785,208.400 209.091 C 208.400 209.397,208.220 209.536,208.000 209.400 C 207.780 209.264,207.600 209.463,207.600 209.843 C 207.600 210.223,207.489 210.422,207.352 210.286 C 207.132 210.066,206.000 210.910,206.000 211.294 C 206.000 211.378,204.643 212.842,202.985 214.550 L 199.971 217.653 197.085 214.537 C 193.867 211.060,123.203 140.400,122.945 140.400 C 122.855 140.400,120.102 137.713,116.829 134.429 C 113.555 131.144,110.769 128.564,110.638 128.695 C 110.507 128.826,110.400 128.603,110.400 128.200 C 110.400 127.797,110.303 127.564,110.184 127.682 C 110.066 127.801,108.851 126.717,107.484 125.274 C 106.118 123.831,102.720 120.389,99.934 117.625 C 81.840 99.677,71.580 89.600,71.399 89.600 C 71.285 89.600,69.335 87.755,67.068 85.500 C 64.800 83.245,61.678 80.230,60.130 78.800 C 52.596 71.840,54.845 70.955,38.289 87.397 " stroke="none" fill="#848484" fill-rule="evenodd"></path><path id="path1" d="" stroke="none" fill="#888484" fill-rule="evenodd"></path></g></svg>